<?xml version="1.0" encoding="UTF-8"?><svg id="bg" xmlns="http://www.w3.org/2000/svg" viewBox="0 0 600 615.5"><defs><style>.cls-1{fill:none;}.cls-2{fill:#97cacc;}.cls-3{fill:#0d0d0d;}</style></defs><rect class="cls-1" x=".73" y="0" width="599.27" height="615.5"/><path class="cls-3" d="M12.85,45.3V11.62H.73v-5.93h30.72v5.93h-12.05v33.68h-6.55Z"/><path class="cls-3" d="M36.4,8.22c0-2.23,1.73-3.96,3.89-3.96s3.89,1.73,3.89,3.96c0,2.1-1.73,3.83-3.89,3.83s-3.89-1.73-3.89-3.83ZM37.08,45.3v-27.56h6.37v27.56h-6.37Z"/><path class="cls-3" d="M51.57,45.3v-27.56h5.62v3.58c2.29-2.78,5.62-4.33,9.77-4.33,6.92,0,10.63,4.02,10.63,11.62v16.69h-6.43v-15.82c0-4.63-1.85-6.86-5.87-6.86-3.21,0-5.87,1.48-7.35,4.14v18.54h-6.37Z"/><path class="cls-3" d="M83.61,37.39c0-5.32,4.02-8.96,10.32-8.96,3.71,0,7.29,1.24,8.78,2.97v-3.03c0-3.77-2.1-5.93-6.06-5.93-3.21,0-5.62,1.54-6.61,3.89l-5.87-1.67c1.85-4.7,6.43-7.66,12.86-7.66,7.54,0,12.05,3.77,12.05,10.51v17.8h-5.56v-2.78c-1.61,2.16-5.44,3.52-9.52,3.52-6.37,0-10.38-3.4-10.38-8.65ZM102.71,39.06v-3.65c-1.11-1.61-3.52-2.6-6.43-2.6-4.02,0-6.18,1.79-6.18,4.45s2.16,4.26,6.24,4.26c2.97,0,5.25-.86,6.37-2.47Z"/><path class="cls-3" d="M133.79,45.3V5.69h16.19c8.53,0,13.35,4.76,13.35,12.05,0,6.86-4.39,11.19-11.19,11.68l13.04,15.88h-8.28l-12.24-15.14h-4.33v15.14h-6.55ZM140.34,11.56v12.98h8.59c5.07,0,7.66-2.16,7.66-6.49s-2.66-6.49-7.72-6.49h-8.53Z"/><path class="cls-3" d="M169.6,8.22c0-2.23,1.73-3.96,3.89-3.96s3.89,1.73,3.89,3.96c0,2.1-1.73,3.83-3.89,3.83s-3.89-1.73-3.89-3.83ZM170.29,45.3v-27.56h6.37v27.56h-6.37Z"/><path class="cls-3" d="M184.74,45.3V0h6.37v45.3h-6.37Z"/><path class="cls-3" d="M197.22,31.52c0-8.47,6.12-14.52,14.83-14.52s13.78,5.56,13.78,13.97v2.29h-22c.37,4.51,3.83,7.29,8.96,7.29,3.83,0,7.05-1.61,8.78-4.39l3.52,4.14c-2.9,3.65-7.6,5.75-12.98,5.75-8.9,0-14.9-5.81-14.9-14.52ZM219.1,29.05c-.12-4.14-3.03-6.86-7.23-6.86s-7.29,2.78-7.97,6.86h15.2Z"/><path class="cls-3" d="M232.49,57.66l5.99-13.54-11.25-26.39h6.98l7.85,19.47,8.28-19.47h6.74l-17.86,39.93h-6.74Z"/><path class="cls-3" d="M13.09,103.34v11.3c0,1.62.46,2.59,1.56,2.88.92.23,2.36.23,3.98.34v2.36H2.13v-2.36c1.1-.06,2.59-.11,3.4-.34,1.1-.29,1.56-1.27,1.56-2.88v-28.77c0-1.61-.46-2.59-1.56-2.88-.81-.23-1.73-.17-3.4-.34v-2.36h18.05c6.98,0,12.28,3.86,12.28,10.78s-5.59,12.28-13.09,12.28h-6.28ZM13.09,83.16v17.3h4.32c5.36,0,8.13-3.57,8.13-8.82s-2.77-8.48-7.21-8.48h-5.25Z"/><path class="cls-3" d="M47.87,117.75c.52.17,2.36.23,3.69.35v2.13h-14.59v-2.13c.81-.06,1.9-.11,2.54-.35,1.15-.35,1.56-1.21,1.56-2.88v-17.64c0-1.79-.35-2.36-2.08-2.36-.69,0-2.02.11-2.54.17v-2.02c1.67-.58,5.07-1.33,6.92-1.33,2.25,0,2.94,1.15,2.94,3.46v.69c2.36-2.42,4.84-3.98,7.67-3.98,2.19,0,4.21.86,4.21,3.57,0,1.44-1.04,3.17-3.34,3.17-2.65,0-2.19-2.6-4.5-2.6-1.21,0-2.19.52-4.03,1.44v17.41c0,1.73.46,2.54,1.56,2.88Z"/><path class="cls-3" d="M71.44,114.87c0,1.73.46,2.54,1.56,2.88.52.17,1.21.23,2.54.35v2.13h-13.43v-2.13c.81-.06,1.9-.11,2.54-.35,1.15-.35,1.56-1.21,1.56-2.88v-17.64c0-1.79-.35-2.36-2.08-2.36-.69,0-2.02.11-2.54.17v-2.02c1.67-.58,5.07-1.33,6.92-1.33,2.25,0,2.94,1.15,2.94,3.46v19.72ZM68.68,76.41c1.9,0,3.69,1.21,3.69,3.69s-1.79,3.69-3.69,3.69-3.69-1.21-3.69-3.69,1.79-3.69,3.69-3.69Z"/><path class="cls-3" d="M90.29,117.75c.52.17,1.21.23,2.54.35v2.13h-13.43v-2.13c.81-.06,1.9-.11,2.54-.35,1.15-.35,1.56-1.21,1.56-2.88v-17.64c0-1.79-.35-2.36-2.08-2.36-.69,0-2.02.11-2.54.17v-2.02c1.67-.58,5.07-1.33,6.92-1.33,2.25,0,2.94,1.15,2.94,3.46v.75c2.82-2.54,6-4.21,9.74-4.21,4.67,0,7.5,2.54,7.5,9.4v13.78c0,1.73.46,2.54,1.56,2.88.52.17,1.21.23,2.54.35v2.13h-13.43v-2.13c.81-.06,1.9-.11,2.54-.35,1.15-.35,1.56-1.21,1.56-2.88v-12.4c0-4.27-1.15-6.34-5.77-6.34-2.19,0-3.8.46-6.23,1.27v17.47c0,1.73.46,2.54,1.56,2.88Z"/><path class="cls-3" d="M124.89,121.1c-7.9,0-12.05-5.42-12.05-13.72,0-9.46,6.23-15.68,13.78-15.68,5.25,0,9.4,2.19,9.4,5.02,0,1.96-1.44,3.17-3.23,3.17-2.25,0-3.11-4.84-7.9-4.84s-7.09,4.15-7.09,10.38c0,7.03,2.71,11.13,9.17,11.13,2.31,0,4.96-.4,8.07-1.44l.11,2.94c-3,2.31-6.86,3.06-10.26,3.06Z"/><path class="cls-3" d="M149.67,114.87c0,1.73.46,2.54,1.56,2.88.52.17,1.21.23,2.54.35v2.13h-13.43v-2.13c.81-.06,1.9-.11,2.54-.35,1.15-.35,1.56-1.21,1.56-2.88v-17.64c0-1.79-.35-2.36-2.08-2.36-.69,0-2.02.11-2.54.17v-2.02c1.67-.58,5.07-1.33,6.92-1.33,2.25,0,2.94,1.15,2.94,3.46v19.72ZM146.91,76.41c1.9,0,3.69,1.21,3.69,3.69s-1.79,3.69-3.69,3.69-3.69-1.21-3.69-3.69,1.79-3.69,3.69-3.69Z"/><path class="cls-3" d="M157.51,94.86c-.69,0-2.02.11-2.54.17v-2.02c1.67-.58,5.07-1.33,6.92-1.33,2.25,0,2.94,1.15,2.94,3.46v.86c2.83-2.94,5.59-4.09,8.76-4.09,5.82,0,10.61,4.32,10.61,12.86,0,9.57-6.05,16.26-14.99,16.26-1.5,0-2.94-.12-4.38-.52v6.86c0,1.73.46,2.54,1.56,2.88.52.17,2.36.23,3.69.35v2.13h-14.59v-2.13c.81-.06,1.9-.12,2.54-.35,1.15-.35,1.56-1.21,1.56-2.88v-30.15c0-1.79-.35-2.36-2.07-2.36ZM164.84,97.98v18.33c1.67.75,3.92,1.39,6.28,1.39,5.65,0,8.13-4.67,8.13-11.07,0-7.03-3-10.44-8.07-10.44-1.73,0-3.75.4-6.34,1.79Z"/><path class="cls-3" d="M191.21,82.01c0-1.79-.34-2.36-2.07-2.36-.69,0-2.02.11-2.54.17v-2.02c1.67-.58,5.07-1.33,6.92-1.33,2.25,0,2.94,1.15,2.94,3.46v34.94c0,1.73.46,2.54,1.56,2.88.52.17,1.21.23,2.54.35v2.13h-13.43v-2.13c.81-.06,1.9-.11,2.54-.35,1.15-.35,1.56-1.21,1.56-2.88v-32.86Z"/><path class="cls-3" d="M215.75,121.1c-8.13,0-12.28-5.42-12.28-13.49,0-9.69,5.82-15.91,14.01-15.91,5.25,0,8.88,3.29,9.45,9.22.06.86.12,1.79.06,2.77l-1.27,2.54h-17.41c.11,6.69,3,10.44,9.4,10.44,2.13,0,4.9-.4,7.96-1.44l.11,2.82c-2.94,2.31-7.09,3.06-10.03,3.06ZM208.43,103.11h13.26c.06-.34.06-.75.06-1.09,0-4.21-2.07-6.98-6.11-6.98-4.32,0-6.63,3.23-7.21,8.07Z"/><path class="cls-3" d="M247.52,117.87c.81-.06,2.77-.11,3.4-.34,1.15-.35,1.56-1.21,1.56-2.88v-28.77c0-1.73-.46-2.54-1.56-2.88-.52-.17-2.07-.23-3.4-.34v-2.36h15.91v2.36c-.81.06-2.77.11-3.4.34-1.15.35-1.56,1.21-1.56,2.88v31.48h6c5.65,0,7.55-2.54,9.74-9.11l1.84.23-.75,11.76h-27.79v-2.36Z"/><path class="cls-3" d="M305.07,118.39c.29,0,.58,0,.92-.06v1.62c-1.38.58-2.54.92-4.38.92-4.27,0-5.71-1.79-5.77-4.44-1.84,2.71-5.19,4.38-8.3,4.38-3.92,0-7.15-2.54-7.15-6.86,0-3.92,2.54-6.52,8.36-8.01l7.09-1.73v-1.33c0-5.02-1.38-6.63-6-6.63-2.54,0-6.11.52-8.71,1.1v-2.65c3.34-1.73,7.9-2.82,11.59-2.82,5.13,0,8.36,2.48,8.36,9.45v13.43c0,2.88,1.5,3.63,3.98,3.63ZM295.84,115.22v-8.3l-3.86.98c-4.27,1.1-6.23,2.13-6.23,4.56s1.33,4.15,4.67,4.15c1.9,0,4.04-.63,5.42-1.38Z"/><path class="cls-3" d="M329.56,92.5l8.42,20.35,4.61-13.38c.29-.86.46-1.62.46-2.25,0-1.9-1.27-2.83-3.4-3.06v-1.67h11.19v1.67c-2.02.46-3.57,2.02-4.38,4.15l-8.3,22.37h-2.13l-8.19-19.14-7.84,19.14h-2.13l-8.59-23.41c-.75-1.96-2.31-2.88-3.86-3.11v-1.67h12.63v1.67c-2.25,0-3.52,1.1-2.94,2.77l5.02,15.05,7.67-19.49h1.79Z"/><path class="cls-3" d="M383.13,94.17c-2.02.46-3.52,2.13-4.38,4.15l-6.46,15.28-2.83,6.75c-1.61,3.86-5.13,12.91-13.55,12.91-1.56,0-2.48-1.1-2.48-2.42,0-1.62.98-2.71,2.31-2.71,6.34,0,8.01-1.27,10.95-8.48l-9.11-22.37c-.87-2.07-2.31-2.88-3.86-3.11v-1.67h12.63v1.67c-2.25,0-3.52,1.15-2.94,2.77l5.88,15.8,5.59-13.26c.35-.81.52-1.56.52-2.19,0-1.84-1.38-2.88-3.46-3.11v-1.67h11.19v1.67Z"/><path class="cls-3" d="M396.51,121.1c-8.13,0-12.28-5.42-12.28-13.49,0-9.69,5.82-15.91,14.01-15.91,5.25,0,8.88,3.29,9.46,9.22.06.86.11,1.79.06,2.77l-1.27,2.54h-17.41c.11,6.69,3,10.44,9.4,10.44,2.13,0,4.9-.4,7.96-1.44l.11,2.82c-2.94,2.31-7.09,3.06-10.03,3.06ZM389.19,103.11h13.26c.06-.34.06-.75.06-1.09,0-4.21-2.07-6.98-6.11-6.98-4.32,0-6.63,3.23-7.21,8.07Z"/><path class="cls-3" d="M422.37,117.75c.52.17,2.36.23,3.69.35v2.13h-14.59v-2.13c.81-.06,1.9-.11,2.54-.35,1.15-.35,1.56-1.21,1.56-2.88v-17.64c0-1.79-.35-2.36-2.08-2.36-.69,0-2.02.11-2.54.17v-2.02c1.67-.58,5.07-1.33,6.92-1.33,2.25,0,2.94,1.15,2.94,3.46v.69c2.36-2.42,4.84-3.98,7.67-3.98,2.19,0,4.21.86,4.21,3.57,0,1.44-1.04,3.17-3.34,3.17-2.65,0-2.19-2.6-4.5-2.6-1.21,0-2.19.52-4.03,1.44v17.41c0,1.73.46,2.54,1.56,2.88Z"/><path class="cls-2" d="M4.01,222.5v-39.62h26.82v5.93H10.56v10.82h18.42v5.81H10.56v11.12h20.27v5.93H4.01Z"/><path class="cls-3" d="M96.9,194.77h5.02v-5.53l4.38-3h.86v8.53h7.96v2.88h-7.96v15.62c0,4.79,1.27,6.17,5.42,6.17.86,0,2.02-.17,3.11-.4l.06,2.48c-1.5,1.04-4.15,1.62-6,1.62-4.38,0-7.84-1.56-7.84-6.69v-18.79h-5.02v-2.88Z"/><path class="cls-3" d="M128.82,217.14c0,1.73.46,2.54,1.56,2.88.52.17,1.21.23,2.54.35v2.13h-13.43v-2.13c.81-.06,1.9-.11,2.54-.35,1.15-.35,1.56-1.21,1.56-2.88v-17.64c0-1.79-.35-2.36-2.08-2.36-.69,0-2.02.11-2.54.17v-2.02c1.67-.58,5.07-1.33,6.92-1.33,2.25,0,2.94,1.15,2.94,3.46v19.72ZM126.05,178.68c1.9,0,3.69,1.21,3.69,3.69s-1.79,3.69-3.69,3.69-3.69-1.21-3.69-3.69,1.79-3.69,3.69-3.69Z"/><path class="cls-3" d="M147.67,220.02c.52.17,1.21.23,2.54.35v2.13h-13.43v-2.13c.81-.06,1.9-.11,2.54-.35,1.15-.35,1.56-1.21,1.56-2.88v-17.64c0-1.79-.35-2.36-2.08-2.36-.69,0-2.02.11-2.54.17v-2.02c1.67-.58,5.07-1.33,6.92-1.33,2.25,0,2.94,1.15,2.94,3.46v.75c2.82-2.54,6-4.21,9.74-4.21,4.67,0,7.5,2.54,7.5,9.4v13.78c0,1.73.46,2.54,1.56,2.88.52.17,1.21.23,2.54.35v2.13h-13.43v-2.13c.81-.06,1.9-.11,2.54-.35,1.15-.35,1.56-1.21,1.56-2.88v-12.4c0-4.27-1.15-6.34-5.77-6.34-2.19,0-3.8.46-6.23,1.27v17.47c0,1.73.46,2.54,1.56,2.88Z"/><path class="cls-3" d="M195.75,220.66c.29,0,.58,0,.92-.06v1.62c-1.38.58-2.54.92-4.38.92-4.27,0-5.71-1.79-5.76-4.44-1.84,2.71-5.19,4.38-8.3,4.38-3.92,0-7.15-2.54-7.15-6.86,0-3.92,2.54-6.52,8.36-8.01l7.09-1.73v-1.33c0-5.02-1.38-6.63-6-6.63-2.54,0-6.11.52-8.71,1.1v-2.65c3.34-1.73,7.9-2.83,11.59-2.83,5.13,0,8.36,2.48,8.36,9.46v13.43c0,2.88,1.5,3.63,3.98,3.63ZM186.52,217.49v-8.3l-3.86.98c-4.27,1.1-6.23,2.13-6.23,4.56s1.33,4.15,4.67,4.15c1.9,0,4.04-.63,5.42-1.38Z"/><path class="cls-3" d="M226.83,215.53c-2.08,2.02-4.21,2.77-6.34,2.77-5.13,0-9.22-4.09-9.22-11.01,0-7.67,4.96-12.51,12.05-12.51,1.84,0,3.69.35,5.19,1.04l2.19-.58h.69v17.64c0,2.02.92,2.54,2.31,2.54,5.36,0,7.44-7.38,7.44-13.49,0-11.3-7.09-17.18-16.78-17.18-13.15,0-21.22,10.67-21.22,23.64,0,11.88,6.75,20.29,19.95,20.29,3.46,0,10.38-.58,15.11-3.34v2.77c-3.69,2.31-10.9,3.46-15.86,3.46-14.59,0-22.83-9.92-22.83-23.18,0-15.22,10.84-26.64,25.25-26.64,11.59,0,19.6,7.26,19.6,19.78,0,8.19-3.46,16.89-11.94,16.89-3.23,0-4.96-1.21-5.59-2.88ZM226.6,213.45v-14.3c-1.21-.75-2.71-1.5-4.79-1.5-3.63,0-5.53,2.82-5.53,8.76,0,5.07,1.04,8.19,6.23,8.19,1.56,0,2.42-.23,4.09-1.15Z"/><path class="cls-3" d="M248.18,194.77h5.02v-5.53l4.38-3h.86v8.53h7.96v2.88h-7.96v15.62c0,4.79,1.27,6.17,5.42,6.17.87,0,2.02-.17,3.11-.4l.06,2.48c-1.5,1.04-4.15,1.62-5.99,1.62-4.38,0-7.84-1.56-7.84-6.69v-18.79h-5.02v-2.88Z"/><path class="cls-3" d="M281.66,220.02c.52.17,2.36.23,3.69.35v2.13h-14.59v-2.13c.81-.06,1.9-.11,2.54-.35,1.15-.35,1.56-1.21,1.56-2.88v-17.64c0-1.79-.35-2.36-2.08-2.36-.69,0-2.02.11-2.54.17v-2.02c1.67-.58,5.07-1.33,6.92-1.33,2.25,0,2.94,1.15,2.94,3.46v.69c2.36-2.42,4.84-3.98,7.67-3.98,2.19,0,4.21.87,4.21,3.57,0,1.44-1.04,3.17-3.34,3.17-2.65,0-2.19-2.59-4.5-2.59-1.21,0-2.19.52-4.03,1.44v17.41c0,1.73.46,2.54,1.56,2.88Z"/><path class="cls-3" d="M295.51,194.77h4.32v-.29c0-8.99,4.04-15.74,12.57-15.74,2.94,0,4.73.81,4.73,2.59,0,1.27-.81,2.19-2.36,2.19s-2.54-.98-4.9-.98c-4.27,0-4.78,3.06-4.78,9.05v3.17h6.69v2.88h-6.69v19.49c0,1.73.46,2.54,1.56,2.88.52.17,1.21.23,2.54.35v2.13h-13.43v-2.13c.81-.06,1.9-.11,2.54-.35,1.15-.35,1.56-1.21,1.56-2.88v-19.49h-4.32v-2.88Z"/><path class="cls-3" d="M339.94,220.66c.29,0,.58,0,.92-.06v1.62c-1.38.58-2.54.92-4.38.92-4.27,0-5.71-1.79-5.77-4.44-1.84,2.71-5.19,4.38-8.3,4.38-3.92,0-7.15-2.54-7.15-6.86,0-3.92,2.54-6.52,8.36-8.01l7.09-1.73v-1.33c0-5.02-1.38-6.63-6-6.63-2.54,0-6.11.52-8.71,1.1v-2.65c3.34-1.73,7.9-2.83,11.59-2.83,5.13,0,8.36,2.48,8.36,9.46v13.43c0,2.88,1.5,3.63,3.98,3.63ZM330.71,217.49v-8.3l-3.86.98c-4.27,1.1-6.23,2.13-6.23,4.56s1.33,4.15,4.67,4.15c1.9,0,4.04-.63,5.42-1.38Z"/><path class="cls-3" d="M355.24,220.02c.52.17,1.21.23,2.54.35v2.13h-13.43v-2.13c.81-.06,1.9-.11,2.54-.35,1.15-.35,1.56-1.21,1.56-2.88v-17.64c0-1.79-.35-2.36-2.08-2.36-.69,0-2.02.11-2.54.17v-2.02c1.67-.58,5.07-1.33,6.92-1.33,2.25,0,2.94,1.15,2.94,3.46v.75c2.82-2.54,6-4.21,9.74-4.21,3.23,0,5.59,1.21,6.75,4.32,2.88-2.6,6.11-4.32,9.86-4.32,4.67,0,7.5,2.54,7.5,9.4v13.78c0,1.73.46,2.54,1.56,2.88.52.17,1.21.23,2.54.35v2.13h-13.43v-2.13c.81-.06,1.9-.11,2.54-.35,1.15-.35,1.56-1.21,1.56-2.88v-12.4c0-4.27-1.15-6.34-5.77-6.34-2.07,0-3.69.46-5.94,1.15.23,1.1.35,2.36.35,3.8v13.78c0,1.73.46,2.54,1.56,2.88.52.17,1.21.23,2.54.35v2.13h-13.43v-2.13c.81-.06,1.9-.11,2.54-.35,1.15-.35,1.56-1.21,1.56-2.88v-12.4c0-4.27-1.15-6.34-5.77-6.34-2.19,0-3.8.46-6.23,1.27v17.47c0,1.73.46,2.54,1.56,2.88Z"/><path class="cls-3" d="M404.96,217.14c0,1.73.46,2.54,1.56,2.88.52.17,1.21.23,2.54.35v2.13h-13.43v-2.13c.81-.06,1.9-.11,2.54-.35,1.15-.35,1.56-1.21,1.56-2.88v-17.64c0-1.79-.35-2.36-2.08-2.36-.69,0-2.02.11-2.54.17v-2.02c1.67-.58,5.07-1.33,6.92-1.33,2.25,0,2.94,1.15,2.94,3.46v19.72ZM402.19,178.68c1.9,0,3.69,1.21,3.69,3.69s-1.79,3.69-3.69,3.69-3.69-1.21-3.69-3.69,1.79-3.69,3.69-3.69Z"/><path class="cls-3" d="M416.67,184.28c0-1.79-.34-2.36-2.07-2.36-.69,0-2.02.11-2.54.17v-2.02c1.67-.58,5.07-1.33,6.92-1.33,2.25,0,2.94,1.15,2.94,3.46v34.94c0,1.73.46,2.54,1.56,2.88.52.17,1.21.23,2.54.35v2.13h-13.43v-2.13c.81-.06,1.9-.11,2.54-.35,1.15-.35,1.56-1.21,1.56-2.88v-32.86Z"/><path class="cls-3" d="M456.47,196.44c-2.02.46-3.52,2.13-4.38,4.15l-6.46,15.28-2.83,6.75c-1.61,3.86-5.13,12.91-13.55,12.91-1.56,0-2.48-1.1-2.48-2.42,0-1.61.98-2.71,2.31-2.71,6.34,0,8.01-1.27,10.95-8.48l-9.11-22.37c-.87-2.07-2.31-2.88-3.86-3.11v-1.67h12.63v1.67c-2.25,0-3.52,1.15-2.94,2.77l5.88,15.8,5.59-13.26c.35-.81.52-1.56.52-2.19,0-1.84-1.38-2.88-3.46-3.11v-1.67h11.19v1.67Z"/><path class="cls-3" d="M461.57,184.28c0-1.79-.34-2.36-2.07-2.36-.69,0-2.02.11-2.54.17v-2.02c1.67-.58,5.07-1.33,6.92-1.33,2.25,0,2.94,1.15,2.94,3.46v34.94c0,1.73.46,2.54,1.56,2.88.52.17,1.21.23,2.54.35v2.13h-13.43v-2.13c.81-.06,1.9-.11,2.54-.35,1.15-.35,1.56-1.21,1.56-2.88v-32.86Z"/><path class="cls-3" d="M499.18,220.66c.29,0,.58,0,.92-.06v1.62c-1.38.58-2.54.92-4.38.92-4.27,0-5.71-1.79-5.76-4.44-1.84,2.71-5.19,4.38-8.3,4.38-3.92,0-7.15-2.54-7.15-6.86,0-3.92,2.54-6.52,8.36-8.01l7.09-1.73v-1.33c0-5.02-1.38-6.63-6-6.63-2.54,0-6.11.52-8.71,1.1v-2.65c3.34-1.73,7.9-2.83,11.59-2.83,5.13,0,8.36,2.48,8.36,9.46v13.43c0,2.88,1.5,3.63,3.98,3.63ZM489.95,217.49v-8.3l-3.86.98c-4.27,1.1-6.23,2.13-6.23,4.56s1.33,4.15,4.67,4.15c1.9,0,4.04-.63,5.42-1.38Z"/><path class="cls-3" d="M523.66,194.77l8.42,20.35,4.61-13.38c.29-.86.46-1.61.46-2.25,0-1.9-1.27-2.83-3.4-3.06v-1.67h11.19v1.67c-2.02.46-3.57,2.02-4.38,4.15l-8.3,22.37h-2.13l-8.19-19.14-7.84,19.14h-2.13l-8.59-23.41c-.75-1.96-2.31-2.88-3.86-3.11v-1.67h12.63v1.67c-2.25,0-3.52,1.09-2.94,2.77l5.02,15.05,7.67-19.49h1.79Z"/><path class="cls-2" d="M4.01,299.21v-39.62h14.83c8.78,0,13.84,4.7,13.84,12.49s-5.07,12.36-13.84,12.36h-8.28v14.77h-6.55ZM10.56,265.46v13.1h7.29c5.25,0,8.1-2.22,8.1-6.49s-2.84-6.61-8.1-6.61h-7.29Z"/><path class="cls-3" d="M116.95,251.81l1.1,2.19c-8.53,4.27-11.53,12.34-11.53,25.48s3,21.22,11.53,25.48l-1.1,2.19c-12.86-3.92-16.43-15.1-16.43-27.5s3.8-23,16.43-27.85Z"/><path class="cls-3" d="M134.25,287.85h-17.99v-3.57l20.93-25.25h3.06v24.39h6.8l.17.58-1.15,3.86h-5.82v11.36h-6v-11.36ZM134.25,283.41v-16.03l-13.14,16.03h13.14Z"/><path class="cls-3" d="M164.83,293.15c-.06,1.73.46,2.54,1.56,2.88.52.17,4.38.4,5.71.52v2.65h-20.53v-2.65c.81-.06,5.07-.29,5.71-.52,1.15-.35,1.56-1.21,1.56-2.88v-28.71h-7.84v-2.07c4.21-.58,9.34-2.48,12.22-3.92h1.61v34.71Z"/><path class="cls-3" d="M184.96,277.01c2.36-1.33,5.3-2.36,8.71-2.36,7.44,0,12.11,4.79,12.11,11.41,0,7.78-6.23,14.07-14.59,14.07s-13.43-6.75-13.43-15.97c0-13.78,9.97-24.16,23.06-25.66,1.1-.12,2.19-.17,3.34-.17l.52,2.48c-11.3.81-17.53,7.61-19.72,16.2ZM191.88,297.42c4.5,0,7.49-4.04,7.49-10.32s-3-9.05-7.78-9.05c-2.65,0-5.13.86-7.21,1.96-.23,1.5-.29,3.06-.29,4.61,0,8.59,3.17,12.8,7.78,12.8Z"/><path class="cls-3" d="M207.78,307.33l-1.1-2.19c8.53-4.27,11.53-12.34,11.53-25.48s-3-21.22-11.53-25.48l1.1-2.19c12.63,4.84,16.43,15.05,16.43,27.85s-3.57,23.58-16.43,27.5Z"/><path class="cls-3" d="M264.11,277.35c7.21,3.46,8.76,6.52,8.76,10.61,0,8.76-7.44,12.11-14.3,12.11s-12.91-3.17-12.91-10.49c0-5.3,3.29-8.36,8.01-10.44-5.36-2.94-7.09-6.11-7.09-9.8,0-7.21,7.15-10.95,13.43-10.95s12.11,3.46,12.11,9.46c0,3.86-2.48,6.8-8.01,9.51ZM256.56,280.52c-2.94,1.84-5.02,4.15-5.02,8.65,0,5.02,2.65,7.84,7.67,7.84,5.42,0,8.07-3.29,8.07-6.92,0-5.48-6.23-7.61-10.72-9.57ZM261.17,276.08c3.17-2.31,5.07-4.73,5.07-8.07,0-4.04-2.65-6.63-6.92-6.63s-6.86,2.54-6.86,6.34c0,4.9,4.38,6.57,8.71,8.36Z"/><path class="cls-3" d="M295.98,287.85h-17.99v-3.57l20.93-25.25h3.06v24.39h6.8l.17.58-1.15,3.86h-5.82v11.36h-6v-11.36ZM295.98,283.41v-16.03l-13.14,16.03h13.14Z"/><path class="cls-3" d="M319.08,279.14c5.59-3.63,8.76-5.94,8.76-9.98s-3.29-5.65-6.86-5.65c-3.17,0-6.46,1.21-8.53,3.69l-1.27-1.5c3.69-5.48,7.55-7.38,12.4-7.38,5.48,0,10.38,2.48,10.38,8.48,0,3.63-1.79,6.46-6.51,10.09,6.05,1.33,9.57,4.61,9.57,10.32,0,8.42-7.9,12.86-15.45,12.86-4.55,0-10.55-1.61-10.55-5.36,0-1.61,1.15-2.71,2.94-2.71,4.09,0,2.31,5.48,8.82,5.48,4.9,0,8.01-3.17,8.01-7.73,0-3.63-1.9-7.78-11.18-8.82l-.52-1.79Z"/><path class="cls-3" d="M360.71,286.29h-16.78v-4.44h16.78v4.44Z"/><path class="cls-3" d="M385.67,277.35c7.21,3.46,8.76,6.52,8.76,10.61,0,8.76-7.44,12.11-14.3,12.11s-12.91-3.17-12.91-10.49c0-5.3,3.29-8.36,8.01-10.44-5.36-2.94-7.09-6.11-7.09-9.8,0-7.21,7.15-10.95,13.43-10.95s12.11,3.46,12.11,9.46c0,3.86-2.48,6.8-8.01,9.51ZM378.12,280.52c-2.94,1.84-5.02,4.15-5.02,8.65,0,5.02,2.65,7.84,7.67,7.84,5.42,0,8.07-3.29,8.07-6.92,0-5.48-6.23-7.61-10.72-9.57ZM382.73,276.08c3.17-2.31,5.07-4.73,5.07-8.07,0-4.04-2.65-6.63-6.92-6.63s-6.86,2.54-6.86,6.34c0,4.9,4.38,6.57,8.71,8.36Z"/><path class="cls-3" d="M418.97,277.47c7.03,3.35,8.65,6.52,8.65,10.55,0,7.44-7.15,12.05-14.01,12.05s-12.63-3.06-12.63-10.38c0-5.36,3.46-8.48,8.01-10.55-5.48-2.88-7.03-5.88-7.03-9.63,0-7.21,6.8-11.13,13.09-11.13s11.82,3.17,11.82,9.17c0,3.92-2.31,7.09-7.9,9.92ZM411.76,280.47c-3.06,1.84-5.19,4.09-5.19,8.71,0,5.02,2.65,7.84,7.67,7.84,5.42,0,8.07-3.29,8.07-6.92,0-5.48-6.11-7.73-10.55-9.63ZM416.08,276.2c3.23-2.36,5.19-4.79,5.19-8.19,0-4.04-2.65-6.63-6.92-6.63s-6.86,2.54-6.86,6.34c0,5.02,4.21,6.63,8.59,8.48Z"/><path class="cls-3" d="M450.72,287.85h-17.99v-3.57l20.93-25.25h3.06v24.39h6.8l.17.58-1.15,3.86h-5.82v11.36h-6v-11.36ZM450.72,283.41v-16.03l-13.14,16.03h13.14Z"/><path class="cls-3" d="M485.96,287.85h-17.99v-3.57l20.93-25.25h3.06v24.39h6.8l.17.58-1.15,3.86h-5.82v11.36h-6v-11.36ZM485.96,283.41v-16.03l-13.14,16.03h13.14Z"/><path class="cls-2" d="M4.01,375.91v-39.62h6.55v39.62h-6.55Z"/><path class="cls-3" d="M108.68,368.93c-2.08,2.02-4.21,2.77-6.34,2.77-5.13,0-9.22-4.09-9.22-11.01,0-7.67,4.96-12.51,12.05-12.51,1.84,0,3.69.35,5.19,1.04l2.19-.58h.69v17.64c0,2.02.92,2.54,2.31,2.54,5.36,0,7.44-7.38,7.44-13.49,0-11.3-7.09-17.18-16.78-17.18-13.15,0-21.22,10.67-21.22,23.64,0,11.88,6.75,20.29,19.95,20.29,3.46,0,10.38-.58,15.11-3.34v2.77c-3.69,2.31-10.9,3.46-15.86,3.46-14.59,0-22.83-9.92-22.83-23.18,0-15.22,10.84-26.64,25.25-26.64,11.59,0,19.6,7.26,19.6,19.78,0,8.19-3.46,16.89-11.94,16.89-3.23,0-4.96-1.21-5.59-2.88ZM108.45,366.86v-14.3c-1.21-.75-2.71-1.5-4.79-1.5-3.63,0-5.53,2.82-5.53,8.76,0,5.07,1.04,8.19,6.23,8.19,1.56,0,2.42-.23,4.09-1.15Z"/><path class="cls-3" d="M130.03,348.18h5.02v-5.53l4.38-3h.86v8.53h7.96v2.88h-7.96v15.62c0,4.79,1.27,6.17,5.42,6.17.86,0,2.02-.17,3.11-.4l.06,2.48c-1.5,1.04-4.15,1.62-6,1.62-4.38,0-7.84-1.56-7.84-6.69v-18.79h-5.02v-2.88Z"/><path class="cls-3" d="M161.95,370.55c0,1.73.46,2.54,1.56,2.88.52.17,1.21.23,2.54.35v2.13h-13.43v-2.13c.81-.06,1.9-.11,2.54-.35,1.15-.35,1.56-1.21,1.56-2.88v-17.64c0-1.79-.35-2.36-2.08-2.36-.69,0-2.02.11-2.54.17v-2.02c1.67-.58,5.07-1.33,6.92-1.33,2.25,0,2.94,1.15,2.94,3.46v19.72ZM159.18,332.09c1.9,0,3.69,1.21,3.69,3.69s-1.79,3.69-3.69,3.69-3.69-1.21-3.69-3.69,1.79-3.69,3.69-3.69Z"/><path class="cls-3" d="M180.8,373.43c.52.17,1.21.23,2.54.35v2.13h-13.43v-2.13c.81-.06,1.9-.11,2.54-.35,1.15-.35,1.56-1.21,1.56-2.88v-17.64c0-1.79-.35-2.36-2.08-2.36-.69,0-2.02.11-2.54.17v-2.02c1.67-.58,5.07-1.33,6.92-1.33,2.25,0,2.94,1.15,2.94,3.46v.75c2.82-2.54,6-4.21,9.74-4.21,4.67,0,7.49,2.54,7.49,9.4v13.78c0,1.73.46,2.54,1.56,2.88.52.17,1.21.23,2.54.35v2.13h-13.43v-2.13c.81-.06,1.9-.11,2.54-.35,1.15-.35,1.56-1.21,1.56-2.88v-12.4c0-4.27-1.15-6.34-5.77-6.34-2.19,0-3.8.46-6.23,1.27v17.47c0,1.73.46,2.54,1.56,2.88Z"/><path class="cls-3" d="M228.88,374.06c.29,0,.58,0,.92-.06v1.62c-1.38.58-2.54.92-4.38.92-4.27,0-5.71-1.79-5.76-4.44-1.84,2.71-5.19,4.38-8.3,4.38-3.92,0-7.15-2.54-7.15-6.86,0-3.92,2.54-6.52,8.36-8.01l7.09-1.73v-1.33c0-5.02-1.38-6.63-6-6.63-2.54,0-6.11.52-8.71,1.1v-2.65c3.34-1.73,7.9-2.82,11.59-2.82,5.13,0,8.36,2.48,8.36,9.45v13.43c0,2.88,1.5,3.63,3.98,3.63ZM219.65,370.89v-8.3l-3.86.98c-4.27,1.1-6.23,2.13-6.23,4.56s1.33,4.15,4.67,4.15c1.9,0,4.04-.63,5.42-1.38Z"/><path class="cls-3" d="M244.19,373.43c.52.17,2.36.23,3.69.35v2.13h-14.59v-2.13c.81-.06,1.9-.11,2.54-.35,1.15-.35,1.56-1.21,1.56-2.88v-17.64c0-1.79-.35-2.36-2.08-2.36-.69,0-2.02.11-2.54.17v-2.02c1.67-.58,5.07-1.33,6.92-1.33,2.25,0,2.94,1.15,2.94,3.46v.69c2.36-2.42,4.84-3.98,7.67-3.98,2.19,0,4.21.86,4.21,3.57,0,1.44-1.04,3.17-3.34,3.17-2.65,0-2.19-2.6-4.5-2.6-1.21,0-2.19.52-4.03,1.44v17.41c0,1.73.46,2.54,1.56,2.88Z"/><path class="cls-3" d="M267.76,370.55c0,1.73.46,2.54,1.56,2.88.52.17,1.21.23,2.54.35v2.13h-13.43v-2.13c.81-.06,1.9-.11,2.54-.35,1.15-.35,1.56-1.21,1.56-2.88v-17.64c0-1.79-.35-2.36-2.08-2.36-.69,0-2.02.11-2.54.17v-2.02c1.67-.58,5.07-1.33,6.92-1.33,2.25,0,2.94,1.15,2.94,3.46v19.72ZM265,332.09c1.9,0,3.69,1.21,3.69,3.69s-1.79,3.69-3.69,3.69-3.69-1.21-3.69-3.69,1.79-3.69,3.69-3.69Z"/><path class="cls-3" d="M279.48,337.68c0-1.79-.34-2.36-2.07-2.36-.69,0-2.02.11-2.54.17v-2.02c1.67-.58,5.07-1.33,6.92-1.33,2.25,0,2.94,1.15,2.94,3.46v34.94c0,1.73.46,2.54,1.56,2.88.52.17,1.21.23,2.54.35v2.13h-13.43v-2.13c.81-.06,1.9-.11,2.54-.35,1.15-.35,1.56-1.21,1.56-2.88v-32.86Z"/><path class="cls-3" d="M304.02,376.77c-8.13,0-12.28-5.42-12.28-13.49,0-9.69,5.82-15.91,14.01-15.91,5.25,0,8.88,3.29,9.46,9.22.06.86.11,1.79.06,2.77l-1.27,2.54h-17.41c.11,6.69,3,10.44,9.4,10.44,2.13,0,4.9-.4,7.96-1.44l.11,2.82c-2.94,2.31-7.09,3.06-10.03,3.06ZM296.7,358.78h13.26c.06-.34.06-.75.06-1.09,0-4.21-2.07-6.98-6.11-6.98-4.32,0-6.63,3.23-7.21,8.07Z"/><path class="cls-3" d="M347.2,349.85c-2.02.46-3.52,2.13-4.38,4.15l-6.46,15.28-2.83,6.75c-1.61,3.86-5.13,12.91-13.55,12.91-1.56,0-2.48-1.1-2.48-2.42,0-1.62.98-2.71,2.31-2.71,6.34,0,8.01-1.27,10.95-8.48l-9.11-22.37c-.87-2.07-2.31-2.88-3.86-3.11v-1.67h12.63v1.67c-2.25,0-3.52,1.15-2.94,2.77l5.88,15.8,5.59-13.26c.35-.81.52-1.56.52-2.19,0-1.84-1.38-2.88-3.46-3.11v-1.67h11.19v1.67Z"/><path class="cls-3" d="M350.57,348.18h4.32v-.29c0-8.99,4.04-15.74,12.57-15.74,2.94,0,4.73.81,4.73,2.59,0,1.27-.81,2.19-2.36,2.19s-2.54-.98-4.9-.98c-4.27,0-4.78,3.06-4.78,9.05v3.17h6.69v2.88h-6.69v19.49c0,1.73.46,2.54,1.56,2.88.52.17,1.21.23,2.54.35v2.13h-13.43v-2.13c.81-.06,1.9-.11,2.54-.35,1.15-.35,1.56-1.21,1.56-2.88v-19.49h-4.32v-2.88Z"/><path class="cls-3" d="M395,374.06c.29,0,.58,0,.92-.06v1.62c-1.38.58-2.54.92-4.38.92-4.27,0-5.71-1.79-5.77-4.44-1.84,2.71-5.19,4.38-8.3,4.38-3.92,0-7.15-2.54-7.15-6.86,0-3.92,2.54-6.52,8.36-8.01l7.09-1.73v-1.33c0-5.02-1.38-6.63-6-6.63-2.54,0-6.11.52-8.71,1.1v-2.65c3.34-1.73,7.9-2.82,11.59-2.82,5.13,0,8.36,2.48,8.36,9.45v13.43c0,2.88,1.5,3.63,3.98,3.63ZM385.77,370.89v-8.3l-3.86.98c-4.27,1.1-6.23,2.13-6.23,4.56s1.33,4.15,4.67,4.15c1.9,0,4.04-.63,5.42-1.38Z"/><path class="cls-3" d="M410.3,373.43c.52.17,1.21.23,2.54.35v2.13h-13.43v-2.13c.81-.06,1.9-.11,2.54-.35,1.15-.35,1.56-1.21,1.56-2.88v-17.64c0-1.79-.35-2.36-2.08-2.36-.69,0-2.02.11-2.54.17v-2.02c1.67-.58,5.07-1.33,6.92-1.33,2.25,0,2.94,1.15,2.94,3.46v.75c2.82-2.54,6-4.21,9.74-4.21,3.23,0,5.59,1.21,6.75,4.32,2.88-2.59,6.11-4.32,9.86-4.32,4.67,0,7.49,2.54,7.49,9.4v13.78c0,1.73.46,2.54,1.56,2.88.52.17,1.21.23,2.54.35v2.13h-13.43v-2.13c.81-.06,1.9-.11,2.54-.35,1.15-.35,1.56-1.21,1.56-2.88v-12.4c0-4.27-1.15-6.34-5.77-6.34-2.07,0-3.69.46-5.94,1.15.23,1.1.34,2.36.34,3.81v13.78c0,1.73.46,2.54,1.56,2.88.52.17,1.21.23,2.54.35v2.13h-13.43v-2.13c.81-.06,1.9-.11,2.54-.35,1.15-.35,1.56-1.21,1.56-2.88v-12.4c0-4.27-1.15-6.34-5.77-6.34-2.19,0-3.8.46-6.23,1.27v17.47c0,1.73.46,2.54,1.56,2.88Z"/><path class="cls-3" d="M460.01,370.55c0,1.73.46,2.54,1.56,2.88.52.17,1.21.23,2.54.35v2.13h-13.43v-2.13c.81-.06,1.9-.11,2.54-.35,1.15-.35,1.56-1.21,1.56-2.88v-17.64c0-1.79-.35-2.36-2.08-2.36-.69,0-2.02.11-2.54.17v-2.02c1.67-.58,5.07-1.33,6.92-1.33,2.25,0,2.94,1.15,2.94,3.46v19.72ZM457.25,332.09c1.9,0,3.69,1.21,3.69,3.69s-1.79,3.69-3.69,3.69-3.69-1.21-3.69-3.69,1.79-3.69,3.69-3.69Z"/><path class="cls-3" d="M471.73,337.68c0-1.79-.34-2.36-2.07-2.36-.69,0-2.02.11-2.54.17v-2.02c1.67-.58,5.07-1.33,6.92-1.33,2.25,0,2.94,1.15,2.94,3.46v34.94c0,1.73.46,2.54,1.56,2.88.52.17,1.21.23,2.54.35v2.13h-13.43v-2.13c.81-.06,1.9-.11,2.54-.35,1.15-.35,1.56-1.21,1.56-2.88v-32.86Z"/><path class="cls-3" d="M511.53,349.85c-2.02.46-3.52,2.13-4.38,4.15l-6.46,15.28-2.83,6.75c-1.61,3.86-5.13,12.91-13.55,12.91-1.56,0-2.48-1.1-2.48-2.42,0-1.62.98-2.71,2.31-2.71,6.34,0,8.01-1.27,10.95-8.48l-9.11-22.37c-.87-2.07-2.31-2.88-3.86-3.11v-1.67h12.63v1.67c-2.25,0-3.52,1.15-2.94,2.77l5.88,15.8,5.59-13.26c.35-.81.52-1.56.52-2.19,0-1.84-1.38-2.88-3.46-3.11v-1.67h11.19v1.67Z"/><path class="cls-3" d="M516.63,337.68c0-1.79-.34-2.36-2.07-2.36-.69,0-2.02.11-2.54.17v-2.02c1.67-.58,5.07-1.33,6.92-1.33,2.25,0,2.94,1.15,2.94,3.46v34.94c0,1.73.46,2.54,1.56,2.88.52.17,1.21.23,2.54.35v2.13h-13.43v-2.13c.81-.06,1.9-.11,2.54-.35,1.15-.35,1.56-1.21,1.56-2.88v-32.86Z"/><path class="cls-3" d="M554.24,374.06c.29,0,.58,0,.92-.06v1.62c-1.38.58-2.54.92-4.38.92-4.27,0-5.71-1.79-5.77-4.44-1.84,2.71-5.19,4.38-8.3,4.38-3.92,0-7.15-2.54-7.15-6.86,0-3.92,2.54-6.52,8.36-8.01l7.09-1.73v-1.33c0-5.02-1.38-6.63-6-6.63-2.54,0-6.11.52-8.71,1.1v-2.65c3.34-1.73,7.9-2.82,11.59-2.82,5.13,0,8.36,2.48,8.36,9.45v13.43c0,2.88,1.5,3.63,3.98,3.63ZM545.01,370.89v-8.3l-3.86.98c-4.27,1.1-6.23,2.13-6.23,4.56s1.33,4.15,4.67,4.15c1.9,0,4.04-.63,5.42-1.38Z"/><path class="cls-3" d="M578.72,348.18l8.42,20.35,4.61-13.38c.29-.86.46-1.62.46-2.25,0-1.9-1.27-2.83-3.4-3.06v-1.67h11.19v1.67c-2.02.46-3.57,2.02-4.38,4.15l-8.3,22.37h-2.13l-8.19-19.14-7.84,19.14h-2.13l-8.59-23.41c-.75-1.96-2.31-2.88-3.86-3.11v-1.67h12.63v1.67c-2.25,0-3.52,1.1-2.94,2.77l5.02,15.05,7.67-19.49h1.79Z"/><path class="cls-3" d="M20.41,490.47v31.48c0,1.62.46,2.6,1.56,2.88.81.23,1.73.17,3.4.34v2.36h-15.91v-2.36c1.09-.06,2.59-.11,3.4-.34,1.09-.29,1.56-1.27,1.56-2.88v-31.48h-2.88c-5.02,0-6.98,1.21-8.42,6.75H1.04v-9.63h32.75v9.63h-2.07c-1.44-5.53-3.4-6.75-8.42-6.75h-2.88Z"/><path class="cls-3" d="M46.63,522.18c0,1.73.46,2.54,1.56,2.88.52.17,1.21.23,2.54.35v2.13h-13.43v-2.13c.81-.06,1.9-.11,2.54-.35,1.15-.35,1.56-1.21,1.56-2.88v-17.64c0-1.79-.35-2.36-2.08-2.36-.69,0-2.02.11-2.54.17v-2.02c1.67-.58,5.07-1.33,6.92-1.33,2.25,0,2.94,1.15,2.94,3.46v19.72ZM43.86,483.72c1.9,0,3.69,1.21,3.69,3.69s-1.79,3.69-3.69,3.69-3.69-1.21-3.69-3.69,1.79-3.69,3.69-3.69Z"/><path class="cls-3" d="M65.48,525.06c.52.17,1.21.23,2.54.35v2.13h-13.43v-2.13c.81-.06,1.9-.11,2.54-.35,1.15-.35,1.56-1.21,1.56-2.88v-17.64c0-1.79-.35-2.36-2.08-2.36-.69,0-2.02.11-2.54.17v-2.02c1.67-.58,5.07-1.33,6.92-1.33,2.25,0,2.94,1.15,2.94,3.46v.75c2.82-2.54,6-4.21,9.74-4.21,4.67,0,7.5,2.54,7.5,9.4v13.78c0,1.73.46,2.54,1.56,2.88.52.17,1.21.23,2.54.35v2.13h-13.43v-2.13c.81-.06,1.9-.11,2.54-.35,1.15-.35,1.56-1.21,1.56-2.88v-12.4c0-4.27-1.15-6.34-5.77-6.34-2.19,0-3.8.46-6.23,1.27v17.47c0,1.73.46,2.54,1.56,2.88Z"/><path class="cls-3" d="M113.56,525.69c.29,0,.58,0,.92-.06v1.62c-1.38.58-2.54.92-4.38.92-4.27,0-5.71-1.79-5.76-4.44-1.84,2.71-5.19,4.38-8.3,4.38-3.92,0-7.15-2.54-7.15-6.86,0-3.92,2.54-6.52,8.36-8.01l7.09-1.73v-1.33c0-5.02-1.38-6.63-6-6.63-2.54,0-6.11.52-8.71,1.1v-2.65c3.34-1.73,7.9-2.83,11.59-2.83,5.13,0,8.36,2.48,8.36,9.46v13.43c0,2.88,1.5,3.63,3.98,3.63ZM104.34,522.52v-8.3l-3.86.98c-4.27,1.1-6.23,2.13-6.23,4.56s1.33,4.15,4.67,4.15c1.9,0,4.04-.63,5.42-1.38Z"/><path class="cls-3" d="M163.5,497.44c0,5.88-3.75,9.74-9.22,10.95l9.05,12.4c2.25,3.06,4.21,4.09,7.38,4.44l-.17,2.31h-9.57l-13.32-18.74h-3.52v13.14c0,1.62.46,2.6,1.56,2.88.92.23,2.36.23,3.98.34v2.36h-16.49v-2.36c1.1-.06,2.59-.11,3.4-.34,1.1-.29,1.56-1.27,1.56-2.88v-28.77c0-1.62-.46-2.6-1.56-2.88-.81-.23-1.73-.17-3.4-.35v-2.36h18.05c6.98,0,12.28,2.94,12.28,9.86ZM144.13,490.47v15.45h4.32c5.36,0,8.13-2.48,8.13-8.13,0-4.61-2.77-7.32-7.21-7.32h-5.25Z"/><path class="cls-3" d="M183.22,522.18c0,1.73.46,2.54,1.56,2.88.52.17,1.21.23,2.54.35v2.13h-13.43v-2.13c.81-.06,1.9-.11,2.54-.35,1.15-.35,1.56-1.21,1.56-2.88v-17.64c0-1.79-.35-2.36-2.08-2.36-.69,0-2.02.11-2.54.17v-2.02c1.67-.58,5.07-1.33,6.92-1.33,2.25,0,2.94,1.15,2.94,3.46v19.72ZM180.45,483.72c1.9,0,3.69,1.21,3.69,3.69s-1.79,3.69-3.69,3.69-3.69-1.21-3.69-3.69,1.79-3.69,3.69-3.69Z"/><path class="cls-3" d="M194.93,489.31c0-1.79-.34-2.36-2.07-2.36-.69,0-2.02.11-2.54.17v-2.02c1.67-.58,5.07-1.33,6.92-1.33,2.25,0,2.94,1.15,2.94,3.46v34.94c0,1.73.46,2.54,1.56,2.88.52.17,1.21.23,2.54.35v2.13h-13.43v-2.13c.81-.06,1.9-.11,2.54-.35,1.15-.35,1.56-1.21,1.56-2.88v-32.86Z"/><path class="cls-3" d="M219.48,528.4c-8.13,0-12.28-5.42-12.28-13.49,0-9.69,5.82-15.91,14.01-15.91,5.25,0,8.88,3.29,9.45,9.22.06.86.12,1.79.06,2.77l-1.27,2.54h-17.41c.11,6.69,3,10.44,9.4,10.44,2.13,0,4.9-.4,7.96-1.44l.11,2.82c-2.94,2.31-7.09,3.06-10.03,3.06ZM212.15,510.42h13.26c.06-.34.06-.75.06-1.1,0-4.21-2.07-6.98-6.11-6.98-4.32,0-6.63,3.23-7.21,8.07Z"/><path class="cls-3" d="M262.65,501.48c-2.02.46-3.52,2.13-4.38,4.15l-6.46,15.28-2.83,6.75c-1.61,3.86-5.13,12.91-13.55,12.91-1.56,0-2.48-1.1-2.48-2.42,0-1.61.98-2.71,2.31-2.71,6.34,0,8.01-1.27,10.95-8.48l-9.11-22.37c-.87-2.07-2.31-2.88-3.86-3.11v-1.67h12.63v1.67c-2.25,0-3.52,1.15-2.94,2.77l5.88,15.8,5.59-13.26c.35-.81.52-1.56.52-2.19,0-1.84-1.38-2.88-3.46-3.11v-1.67h11.19v1.67Z"/><path class="cls-3" d="M292.29,490.47v16.14h5.77c1.73,0,2.54-.46,2.88-1.56.17-.52.23-2.07.34-3.4h2.36v12.8h-2.36c-.06-.81-.11-2.77-.34-3.4-.35-1.15-1.21-1.56-2.88-1.56h-5.77v12.45c0,1.73.46,2.54,1.56,2.88.52.17,2.07.23,3.4.34v2.36h-15.91v-2.36c.81-.06,2.77-.11,3.4-.34,1.15-.35,1.56-1.21,1.56-2.88v-28.77c0-1.73-.46-2.54-1.56-2.88-.52-.17-2.07-.23-3.4-.35v-2.36h28.42v9.63h-2.07c-1.44-5.53-3.4-6.75-8.42-6.75h-6.98Z"/><path class="cls-3" d="M336.67,525.69c.29,0,.58,0,.92-.06v1.62c-1.38.58-2.54.92-4.38.92-4.27,0-5.71-1.79-5.76-4.44-1.84,2.71-5.19,4.38-8.3,4.38-3.92,0-7.15-2.54-7.15-6.86,0-3.92,2.54-6.52,8.36-8.01l7.09-1.73v-1.33c0-5.02-1.38-6.63-6-6.63-2.54,0-6.11.52-8.71,1.1v-2.65c3.34-1.73,7.9-2.83,11.59-2.83,5.13,0,8.36,2.48,8.36,9.46v13.43c0,2.88,1.5,3.63,3.98,3.63ZM327.44,522.52v-8.3l-3.86.98c-4.27,1.1-6.23,2.13-6.23,4.56s1.33,4.15,4.67,4.15c1.9,0,4.04-.63,5.42-1.38Z"/><path class="cls-3" d="M351.97,525.06c.52.17,1.21.23,2.54.35v2.13h-13.43v-2.13c.81-.06,1.9-.11,2.54-.35,1.15-.35,1.56-1.21,1.56-2.88v-17.64c0-1.79-.35-2.36-2.08-2.36-.69,0-2.02.11-2.54.17v-2.02c1.67-.58,5.07-1.33,6.92-1.33,2.25,0,2.94,1.15,2.94,3.46v.75c2.82-2.54,6-4.21,9.74-4.21,3.23,0,5.59,1.21,6.75,4.32,2.88-2.6,6.11-4.32,9.86-4.32,4.67,0,7.5,2.54,7.5,9.4v13.78c0,1.73.46,2.54,1.56,2.88.52.17,1.21.23,2.54.35v2.13h-13.43v-2.13c.81-.06,1.9-.11,2.54-.35,1.15-.35,1.56-1.21,1.56-2.88v-12.4c0-4.27-1.15-6.34-5.77-6.34-2.07,0-3.69.46-5.94,1.15.23,1.1.35,2.36.35,3.8v13.78c0,1.73.46,2.54,1.56,2.88.52.17,1.21.23,2.54.35v2.13h-13.43v-2.13c.81-.06,1.9-.11,2.54-.35,1.15-.35,1.56-1.21,1.56-2.88v-12.4c0-4.27-1.15-6.34-5.77-6.34-2.19,0-3.8.46-6.23,1.27v17.47c0,1.73.46,2.54,1.56,2.88Z"/><path class="cls-3" d="M401.68,522.18c0,1.73.46,2.54,1.56,2.88.52.17,1.21.23,2.54.35v2.13h-13.43v-2.13c.81-.06,1.9-.11,2.54-.35,1.15-.35,1.56-1.21,1.56-2.88v-17.64c0-1.79-.35-2.36-2.08-2.36-.69,0-2.02.11-2.54.17v-2.02c1.67-.58,5.07-1.33,6.92-1.33,2.25,0,2.94,1.15,2.94,3.46v19.72ZM398.92,483.72c1.9,0,3.69,1.21,3.69,3.69s-1.79,3.69-3.69,3.69-3.69-1.21-3.69-3.69,1.79-3.69,3.69-3.69Z"/><path class="cls-3" d="M413.4,489.31c0-1.79-.35-2.36-2.07-2.36-.69,0-2.02.11-2.54.17v-2.02c1.67-.58,5.07-1.33,6.92-1.33,2.25,0,2.94,1.15,2.94,3.46v34.94c0,1.73.46,2.54,1.56,2.88.52.17,1.21.23,2.54.35v2.13h-13.43v-2.13c.81-.06,1.9-.11,2.54-.35,1.15-.35,1.56-1.21,1.56-2.88v-32.86Z"/><path class="cls-3" d="M453.19,501.48c-2.02.46-3.52,2.13-4.38,4.15l-6.46,15.28-2.83,6.75c-1.61,3.86-5.13,12.91-13.55,12.91-1.56,0-2.48-1.1-2.48-2.42,0-1.61.98-2.71,2.31-2.71,6.34,0,8.01-1.27,10.95-8.48l-9.11-22.37c-.87-2.07-2.31-2.88-3.86-3.11v-1.67h12.63v1.67c-2.25,0-3.52,1.15-2.94,2.77l5.88,15.8,5.59-13.26c.35-.81.52-1.56.52-2.19,0-1.84-1.38-2.88-3.46-3.11v-1.67h11.18v1.67Z"/><path class="cls-3" d="M471.88,525.18c.81-.06,2.77-.11,3.4-.34,1.15-.35,1.56-1.21,1.56-2.88v-28.77c0-1.73-.46-2.54-1.56-2.88-.52-.17-2.07-.23-3.4-.35v-2.36h15.91v2.36c-.81.06-2.77.12-3.4.35-1.15.35-1.56,1.21-1.56,2.88v31.48h6c5.65,0,7.55-2.54,9.74-9.11l1.84.23-.75,11.76h-27.79v-2.36Z"/><path class="cls-3" d="M529.43,525.69c.29,0,.58,0,.92-.06v1.62c-1.38.58-2.54.92-4.38.92-4.27,0-5.71-1.79-5.77-4.44-1.84,2.71-5.19,4.38-8.3,4.38-3.92,0-7.15-2.54-7.15-6.86,0-3.92,2.54-6.52,8.36-8.01l7.09-1.73v-1.33c0-5.02-1.38-6.63-6-6.63-2.54,0-6.11.52-8.71,1.1v-2.65c3.34-1.73,7.9-2.83,11.59-2.83,5.13,0,8.36,2.48,8.36,9.46v13.43c0,2.88,1.5,3.63,3.98,3.63ZM520.2,522.52v-8.3l-3.86.98c-4.27,1.1-6.23,2.13-6.23,4.56s1.33,4.15,4.67,4.15c1.9,0,4.04-.63,5.42-1.38Z"/><path class="cls-3" d="M553.92,499.81l8.42,20.35,4.61-13.38c.29-.86.46-1.61.46-2.25,0-1.9-1.27-2.83-3.4-3.06v-1.67h11.19v1.67c-2.02.46-3.57,2.02-4.38,4.15l-8.3,22.37h-2.13l-8.19-19.14-7.84,19.14h-2.13l-8.59-23.41c-.75-1.96-2.31-2.88-3.86-3.11v-1.67h12.63v1.67c-2.25,0-3.52,1.09-2.94,2.77l5.02,15.05,7.67-19.49h1.79Z"/><path class="cls-3" d="M0,574.73h5.02v-5.53l4.38-3h.86v8.53h7.96v2.88h-7.96v15.62c0,4.79,1.27,6.17,5.42,6.17.87,0,2.02-.17,3.11-.4l.06,2.48c-1.5,1.04-4.15,1.62-5.99,1.62-4.38,0-7.84-1.56-7.84-6.69v-18.79H0v-2.88Z"/><path class="cls-3" d="M31.92,597.1c0,1.73.46,2.54,1.56,2.88.52.17,1.21.23,2.54.35v2.13h-13.43v-2.13c.81-.06,1.9-.11,2.54-.35,1.15-.35,1.56-1.21,1.56-2.88v-17.64c0-1.79-.35-2.36-2.08-2.36-.69,0-2.02.11-2.54.17v-2.02c1.67-.58,5.07-1.33,6.92-1.33,2.25,0,2.94,1.15,2.94,3.46v19.72ZM29.15,558.65c1.9,0,3.69,1.21,3.69,3.69s-1.79,3.69-3.69,3.69-3.69-1.21-3.69-3.69,1.79-3.69,3.69-3.69Z"/><path class="cls-3" d="M50.77,599.99c.52.17,1.21.23,2.54.35v2.13h-13.43v-2.13c.81-.06,1.9-.11,2.54-.35,1.15-.35,1.56-1.21,1.56-2.88v-17.64c0-1.79-.35-2.36-2.08-2.36-.69,0-2.02.11-2.54.17v-2.02c1.67-.58,5.07-1.33,6.92-1.33,2.25,0,2.94,1.15,2.94,3.46v.75c2.82-2.54,6-4.21,9.74-4.21,4.67,0,7.49,2.54,7.49,9.4v13.78c0,1.73.46,2.54,1.56,2.88.52.17,1.21.23,2.54.35v2.13h-13.43v-2.13c.81-.06,1.9-.11,2.54-.35,1.15-.35,1.56-1.21,1.56-2.88v-12.4c0-4.27-1.15-6.34-5.77-6.34-2.19,0-3.8.46-6.23,1.27v17.47c0,1.73.46,2.54,1.56,2.88Z"/><path class="cls-3" d="M98.85,600.62c.29,0,.58,0,.92-.06v1.62c-1.38.58-2.54.92-4.38.92-4.27,0-5.71-1.79-5.77-4.44-1.84,2.71-5.19,4.38-8.3,4.38-3.92,0-7.15-2.54-7.15-6.86,0-3.92,2.54-6.52,8.36-8.01l7.09-1.73v-1.33c0-5.02-1.38-6.63-6-6.63-2.54,0-6.11.52-8.71,1.1v-2.65c3.34-1.73,7.9-2.82,11.59-2.82,5.13,0,8.36,2.48,8.36,9.45v13.43c0,2.88,1.5,3.63,3.98,3.63ZM89.63,597.45v-8.3l-3.86.98c-4.27,1.1-6.23,2.13-6.23,4.56s1.33,4.15,4.67,4.15c1.9,0,4.04-.63,5.42-1.38Z"/><path class="cls-3" d="M114.15,599.99c.52.17,2.36.23,3.69.35v2.13h-14.59v-2.13c.81-.06,1.9-.11,2.54-.35,1.15-.35,1.56-1.21,1.56-2.88v-17.64c0-1.79-.35-2.36-2.08-2.36-.69,0-2.02.11-2.54.17v-2.02c1.67-.58,5.07-1.33,6.92-1.33,2.25,0,2.94,1.15,2.94,3.46v.69c2.36-2.42,4.84-3.98,7.67-3.98,2.19,0,4.21.86,4.21,3.57,0,1.44-1.04,3.17-3.34,3.17-2.65,0-2.19-2.6-4.5-2.6-1.21,0-2.19.52-4.03,1.44v17.41c0,1.73.46,2.54,1.56,2.88Z"/><path class="cls-3" d="M137.74,597.1c0,1.73.46,2.54,1.56,2.88.52.17,1.21.23,2.54.35v2.13h-13.43v-2.13c.81-.06,1.9-.11,2.54-.35,1.15-.35,1.56-1.21,1.56-2.88v-17.64c0-1.79-.35-2.36-2.08-2.36-.69,0-2.02.11-2.54.17v-2.02c1.67-.58,5.07-1.33,6.92-1.33,2.25,0,2.94,1.15,2.94,3.46v19.72ZM134.97,558.65c1.9,0,3.69,1.21,3.69,3.69s-1.79,3.69-3.69,3.69-3.69-1.21-3.69-3.69,1.79-3.69,3.69-3.69Z"/><path class="cls-3" d="M149.45,564.24c0-1.79-.35-2.36-2.07-2.36-.69,0-2.02.11-2.54.17v-2.02c1.67-.58,5.07-1.33,6.92-1.33,2.25,0,2.94,1.15,2.94,3.46v34.94c0,1.73.46,2.54,1.56,2.88.52.17,1.21.23,2.54.35v2.13h-13.43v-2.13c.81-.06,1.9-.11,2.54-.35,1.15-.35,1.56-1.21,1.56-2.88v-32.86Z"/><path class="cls-3" d="M173.99,603.33c-8.13,0-12.28-5.42-12.28-13.49,0-9.69,5.82-15.91,14.01-15.91,5.25,0,8.88,3.29,9.46,9.22.06.86.11,1.79.06,2.77l-1.27,2.54h-17.41c.11,6.69,3,10.44,9.4,10.44,2.13,0,4.9-.4,7.96-1.44l.11,2.82c-2.94,2.31-7.09,3.06-10.03,3.06ZM166.67,585.34h13.26c.06-.34.06-.75.06-1.09,0-4.21-2.07-6.98-6.11-6.98-4.32,0-6.63,3.23-7.21,8.07Z"/><path class="cls-3" d="M217.16,576.41c-2.02.46-3.52,2.13-4.38,4.15l-6.46,15.28-2.83,6.75c-1.61,3.86-5.13,12.91-13.55,12.91-1.56,0-2.48-1.1-2.48-2.42,0-1.62.98-2.71,2.31-2.71,6.34,0,8.01-1.27,10.95-8.48l-9.11-22.37c-.87-2.07-2.31-2.88-3.86-3.11v-1.67h12.63v1.67c-2.25,0-3.52,1.15-2.94,2.77l5.88,15.8,5.59-13.26c.35-.81.52-1.56.52-2.19,0-1.84-1.38-2.88-3.46-3.11v-1.67h11.18v1.67Z"/><path class="cls-3" d="M220.54,574.73h4.32v-.29c0-8.99,4.04-15.74,12.57-15.74,2.94,0,4.73.81,4.73,2.59,0,1.27-.81,2.19-2.36,2.19s-2.54-.98-4.9-.98c-4.27,0-4.78,3.06-4.78,9.05v3.17h6.69v2.88h-6.69v19.49c0,1.73.46,2.54,1.56,2.88.52.17,1.21.23,2.54.35v2.13h-13.43v-2.13c.81-.06,1.9-.11,2.54-.35,1.15-.35,1.56-1.21,1.56-2.88v-19.49h-4.32v-2.88Z"/><path class="cls-3" d="M264.97,600.62c.29,0,.58,0,.92-.06v1.62c-1.38.58-2.54.92-4.38.92-4.27,0-5.71-1.79-5.77-4.44-1.84,2.71-5.19,4.38-8.3,4.38-3.92,0-7.15-2.54-7.15-6.86,0-3.92,2.54-6.52,8.36-8.01l7.09-1.73v-1.33c0-5.02-1.38-6.63-6-6.63-2.54,0-6.11.52-8.71,1.1v-2.65c3.34-1.73,7.9-2.82,11.59-2.82,5.13,0,8.36,2.48,8.36,9.45v13.43c0,2.88,1.5,3.63,3.98,3.63ZM255.74,597.45v-8.3l-3.86.98c-4.27,1.1-6.23,2.13-6.23,4.56s1.33,4.15,4.67,4.15c1.9,0,4.04-.63,5.42-1.38Z"/><path class="cls-3" d="M280.27,599.99c.52.17,1.21.23,2.54.35v2.13h-13.43v-2.13c.81-.06,1.9-.11,2.54-.35,1.15-.35,1.56-1.21,1.56-2.88v-17.64c0-1.79-.35-2.36-2.08-2.36-.69,0-2.02.11-2.54.17v-2.02c1.67-.58,5.07-1.33,6.92-1.33,2.25,0,2.94,1.15,2.94,3.46v.75c2.82-2.54,6-4.21,9.74-4.21,3.23,0,5.59,1.21,6.75,4.32,2.88-2.59,6.11-4.32,9.86-4.32,4.67,0,7.49,2.54,7.49,9.4v13.78c0,1.73.46,2.54,1.56,2.88.52.17,1.21.23,2.54.35v2.13h-13.43v-2.13c.81-.06,1.9-.11,2.54-.35,1.15-.35,1.56-1.21,1.56-2.88v-12.4c0-4.27-1.15-6.34-5.77-6.34-2.07,0-3.69.46-5.94,1.15.23,1.1.34,2.36.34,3.81v13.78c0,1.73.46,2.54,1.56,2.88.52.17,1.21.23,2.54.35v2.13h-13.43v-2.13c.81-.06,1.9-.11,2.54-.35,1.15-.35,1.56-1.21,1.56-2.88v-12.4c0-4.27-1.15-6.34-5.77-6.34-2.19,0-3.8.46-6.23,1.27v17.47c0,1.73.46,2.54,1.56,2.88Z"/><path class="cls-3" d="M329.99,597.1c0,1.73.46,2.54,1.56,2.88.52.17,1.21.23,2.54.35v2.13h-13.43v-2.13c.81-.06,1.9-.11,2.54-.35,1.15-.35,1.56-1.21,1.56-2.88v-17.64c0-1.79-.35-2.36-2.08-2.36-.69,0-2.02.11-2.54.17v-2.02c1.67-.58,5.07-1.33,6.92-1.33,2.25,0,2.94,1.15,2.94,3.46v19.72ZM327.22,558.65c1.9,0,3.69,1.21,3.69,3.69s-1.79,3.69-3.69,3.69-3.69-1.21-3.69-3.69,1.79-3.69,3.69-3.69Z"/><path class="cls-3" d="M341.7,564.24c0-1.79-.34-2.36-2.07-2.36-.69,0-2.02.11-2.54.17v-2.02c1.67-.58,5.07-1.33,6.92-1.33,2.25,0,2.94,1.15,2.94,3.46v34.94c0,1.73.46,2.54,1.56,2.88.52.17,1.21.23,2.54.35v2.13h-13.43v-2.13c.81-.06,1.9-.11,2.54-.35,1.15-.35,1.56-1.21,1.56-2.88v-32.86Z"/><path class="cls-3" d="M381.5,576.41c-2.02.46-3.52,2.13-4.38,4.15l-6.46,15.28-2.83,6.75c-1.61,3.86-5.13,12.91-13.55,12.91-1.56,0-2.48-1.1-2.48-2.42,0-1.62.98-2.71,2.31-2.71,6.34,0,8.01-1.27,10.95-8.48l-9.11-22.37c-.87-2.07-2.31-2.88-3.86-3.11v-1.67h12.63v1.67c-2.25,0-3.52,1.15-2.94,2.77l5.88,15.8,5.59-13.26c.35-.81.52-1.56.52-2.19,0-1.84-1.38-2.88-3.46-3.11v-1.67h11.19v1.67Z"/><path class="cls-3" d="M386.6,564.24c0-1.79-.34-2.36-2.07-2.36-.69,0-2.02.11-2.54.17v-2.02c1.67-.58,5.07-1.33,6.92-1.33,2.25,0,2.94,1.15,2.94,3.46v34.94c0,1.73.46,2.54,1.56,2.88.52.17,1.21.23,2.54.35v2.13h-13.43v-2.13c.81-.06,1.9-.11,2.54-.35,1.15-.35,1.56-1.21,1.56-2.88v-32.86Z"/><path class="cls-3" d="M424.21,600.62c.29,0,.58,0,.92-.06v1.62c-1.38.58-2.54.92-4.38.92-4.27,0-5.71-1.79-5.76-4.44-1.84,2.71-5.19,4.38-8.3,4.38-3.92,0-7.15-2.54-7.15-6.86,0-3.92,2.54-6.52,8.36-8.01l7.09-1.73v-1.33c0-5.02-1.38-6.63-6-6.63-2.54,0-6.11.52-8.71,1.1v-2.65c3.34-1.73,7.9-2.82,11.59-2.82,5.13,0,8.36,2.48,8.36,9.45v13.43c0,2.88,1.5,3.63,3.98,3.63ZM414.98,597.45v-8.3l-3.86.98c-4.27,1.1-6.23,2.13-6.23,4.56s1.33,4.15,4.67,4.15c1.9,0,4.04-.63,5.42-1.38Z"/><path class="cls-3" d="M448.69,574.73l8.42,20.35,4.61-13.38c.29-.86.46-1.62.46-2.25,0-1.9-1.27-2.83-3.4-3.06v-1.67h11.19v1.67c-2.02.46-3.57,2.02-4.38,4.15l-8.3,22.37h-2.13l-8.19-19.14-7.84,19.14h-2.13l-8.59-23.41c-.75-1.96-2.31-2.88-3.86-3.11v-1.67h12.63v1.67c-2.25,0-3.52,1.1-2.94,2.77l5.02,15.05,7.67-19.49h1.79Z"/><path class="cls-3" d="M474.41,603.04c-2.13,0-4.44-.86-4.44-3.8s2.31-3.86,4.44-3.86,4.44.92,4.44,3.86-2.36,3.8-4.44,3.8Z"/><path class="cls-3" d="M496.25,603.33c-7.9,0-12.05-5.42-12.05-13.72,0-9.46,6.23-15.68,13.78-15.68,5.25,0,9.4,2.19,9.4,5.02,0,1.96-1.44,3.17-3.23,3.17-2.25,0-3.11-4.84-7.9-4.84s-7.09,4.15-7.09,10.38c0,7.03,2.71,11.13,9.17,11.13,2.31,0,4.96-.4,8.07-1.44l.11,2.94c-3,2.31-6.86,3.06-10.26,3.06Z"/><path class="cls-3" d="M523.04,603.33c-7.44,0-12.51-5.42-12.51-13.72,0-9.46,6.52-15.68,14.41-15.68s12.57,5.53,12.57,13.43c0,8.3-5.65,15.97-14.47,15.97ZM523.44,577.27c-5.42,0-7.03,4.21-7.03,10.26,0,6.98,2.19,12.45,8.07,12.45,4.9,0,7.15-3.92,7.15-10.78s-2.31-11.93-8.19-11.93Z"/><path class="cls-3" d="M551.77,599.99c.52.17,1.21.23,2.54.35v2.13h-13.43v-2.13c.81-.06,1.9-.11,2.54-.35,1.15-.35,1.56-1.21,1.56-2.88v-17.64c0-1.79-.35-2.36-2.08-2.36-.69,0-2.02.11-2.54.17v-2.02c1.67-.58,5.07-1.33,6.92-1.33,2.25,0,2.94,1.15,2.94,3.46v.75c2.82-2.54,6-4.21,9.74-4.21,3.23,0,5.59,1.21,6.75,4.32,2.88-2.59,6.11-4.32,9.86-4.32,4.67,0,7.5,2.54,7.5,9.4v13.78c0,1.73.46,2.54,1.56,2.88.52.17,1.21.23,2.54.35v2.13h-13.43v-2.13c.81-.06,1.9-.11,2.54-.35,1.15-.35,1.56-1.21,1.56-2.88v-12.4c0-4.27-1.15-6.34-5.77-6.34-2.07,0-3.69.46-5.94,1.15.23,1.1.35,2.36.35,3.81v13.78c0,1.73.46,2.54,1.56,2.88.52.17,1.21.23,2.54.35v2.13h-13.43v-2.13c.81-.06,1.9-.11,2.54-.35,1.15-.35,1.56-1.21,1.56-2.88v-12.4c0-4.27-1.15-6.34-5.77-6.34-2.19,0-3.8.46-6.23,1.27v17.47c0,1.73.46,2.54,1.56,2.88Z"/></svg>